<svg xmlns="http://www.w3.org/2000/svg" width="30" height="55" viewBox="0 0 30 55"><g><g><path fill="#184e63" d="M27.301 46.071H2.986V8.106h24.315zm-12.438 6.842a2.556 2.556 0 0 1-2.553-2.553 2.556 2.556 0 0 1 2.553-2.553 2.556 2.556 0 0 1 2.553 2.553 2.556 2.556 0 0 1-2.553 2.553zM9.143 3.684c.317-.315.892-.32 1.208 0 .158.158.252.38.252.606a.863.863 0 0 1-.854.853.873.873 0 0 1-.606-.251.861.861 0 0 1 0-1.208zm3.216-.271h5.352a.854.854 0 0 1 0 1.706H12.36a.853.853 0 1 1 0-1.706zM24.248 0H5.8C2.665 0 0 2.557 0 5.692v43.226c0 3.135 2.608 5.686 5.744 5.686l18.478-.02c3.135 0 5.7-2.551 5.7-5.687L29.95 5.69A5.693 5.693 0 0 0 24.248 0z"/></g></g></svg>